<svg version="1.1" class="clearos-svg clearfoundation app-vendor-clearfoundation app-free app-category-gateway app-sub-category-intrusion-protection" viewBox="0 0 400 400" preserveAspectRatio="xMinYMin" xmlns="http://www.w3.org/2000/svg" xmlns:xlink= "http://www.w3.org/1999/xlink">
<path fill="#AA0707" d="M91.666,184.647"/>
<path fill="#AA0707" d="M123.245,247.805"/>
<path fill="#AA0707" d="M91.666,184.647"/>
<path fill="#AA0707" d="M123.245,247.805"/>
<g>
	<path fill="#686868" d="M330.141,20.077c-66.332,33.174-130.137-8.933-130.137-8.933S136.191,53.25,69.858,20.077
		C-5.423,57.093,0.948,162.996,3.509,183.396c0,38.28,43.371,177.381,196.495,205.459
		c153.105-28.078,196.502-167.146,196.502-205.461C399.035,162.996,405.422,57.093,330.141,20.077z M383.252,184.533
		c0,35.703-40.48,165.393-183.249,191.548C57.236,349.926,16.787,220.234,16.787,184.533C14.394,165.484,8.471,66.745,78.646,32.242
		c61.875,30.941,121.357-8.315,121.357-8.315s59.515,39.258,121.349,8.315C391.576,66.745,385.604,165.483,383.252,184.533z"/>
	<g>
		<path fill="#686868" d="M323.769,85.001c-6.723-8.091-15.175-15.159-25.835-20.369c-4.162,2.064-8.228,3.603-12.293,4.946
			L112.525,300.624c9.556,8.324,20.345,16.056,32.734,22.634L323.769,85.001z"/>
		<path fill="#686868" d="M200.003,57.894c0,0-48.005,31.718-97.939,6.738C45.439,92.46,50.225,172.15,52.138,187.51
			c0,16.904,11.373,59.811,43.947,96.691L253.499,74.116C222.926,72.973,200.003,57.894,200.003,57.894z"/>
		<path fill="#686868" d="M336.672,106.114L166.829,332.768c10.261,3.824,21.177,7.14,33.158,9.283
			c115.219-21.13,147.889-125.768,147.889-154.572C349.157,177.338,351.558,138.978,336.672,106.114z"/>
	</g>
</g>
</svg>
